<svg xmlns="http://www.w3.org/2000/svg" viewBox="0 0 559.372 559.372"><path d="M53.244.002c46.512 0 91.29 6.018 134.334 18.054s83.334 29.07 120.87 51.102c37.536 22.032 71.706 48.45 102.513 79.254 30.804 30.804 57.222 64.974 79.255 102.51 22.03 37.54 39.063 77.828 51.102 120.873 12.037 43.043 18.055 87.818 18.055 134.334 0 14.687-5.2 27.23-15.605 37.636-10.404 10.407-22.95 15.604-37.637 15.604-14.69 0-27.234-5.2-37.64-15.604-10.403-10.404-15.605-22.95-15.605-37.637 0-36.724-4.795-72.116-14.383-106.187-9.588-34.064-23.055-65.89-40.395-95.47-17.34-29.582-38.145-56.51-62.424-80.786-24.277-24.276-51.203-45.084-80.784-62.424-29.58-17.34-61.405-30.804-95.473-40.392s-69.462-14.38-106.182-14.38c-14.688 0-27.234-5.203-37.638-15.607S0 67.933 0 53.245 5.204 26.01 15.608 15.607C26.01 5.204 38.557.002 53.244.002zm0 201.348c42.024 0 81.498 8.058 118.422 24.174s69.156 37.944 96.696 65.484c27.54 27.54 49.37 59.77 65.484 96.693 16.117 36.93 24.174 76.4 24.174 118.427 0 14.688-5.2 27.23-15.604 37.637-10.404 10.404-22.95 15.604-37.64 15.604-14.69 0-27.234-5.2-37.638-15.604-10.404-10.404-15.606-22.95-15.606-37.637 0-27.338-5.202-53.04-15.606-77.113-10.404-24.072-24.582-45.084-42.534-63.035-17.952-17.954-38.964-32.132-63.036-42.536-24.072-10.402-49.776-15.604-77.112-15.604-14.688 0-27.234-5.2-37.638-15.605C5.202 281.83 0 269.285 0 254.595s5.202-27.233 15.606-37.637c10.404-10.406 22.95-15.608 37.638-15.608zm97.92 279.683c0 10.61-1.938 20.4-5.814 29.377-3.876 8.98-9.18 16.83-15.912 23.563-6.732 6.73-14.688 12.035-23.868 15.912-9.18 3.875-18.87 5.81-29.07 5.81-10.608 0-20.4-1.937-29.376-5.81-8.976-3.875-16.83-9.184-23.562-15.912-6.732-6.732-12.036-14.586-15.912-23.563-3.876-8.977-5.814-18.768-5.814-29.377 0-10.197 1.938-19.89 5.814-29.066 3.876-9.184 9.18-17.14 15.912-23.87 6.732-6.73 14.586-12.034 23.562-15.91 8.976-3.876 18.768-5.815 29.376-5.815 10.2 0 19.89 1.94 29.07 5.814 9.18 3.877 17.136 9.18 23.868 15.912 6.732 6.73 12.036 14.688 15.912 23.87 3.876 9.177 5.814 18.866 5.814 29.065z"/></svg>