<svg xmlns="http://www.w3.org/2000/svg" viewBox="0 0 514.135 514.135"><path d="M460.8 192c-17.065 0-25.6 6.4-34.132 12.8-4.267 2.134-10.667 2.134-12.8-2.132-2.133-2.133-2.133-4.267-2.133-8.533l8.533-98.133c0-2.133 0-6.4-2.133-8.533-2.133-2.134-4.267-4.268-8.533-4.268h-96c-8.533 0-14.934 4.267-19.2 10.667-4.267 6.4-4.267 14.933 0 21.332 4.267 6.4 6.4 10.667 6.4 21.333 0 17.066-19.2 32-42.667 32s-42.667-14.934-42.667-32c0-8.533 2.133-14.934 6.4-21.333 4.267-6.4 4.267-14.934 0-21.333S211.2 83.2 202.668 83.2h-96c-2.133 0-6.4 2.133-8.533 4.267-2.133 2.132-2.133 4.266-2.133 8.532l8.533 98.133c0 4.267-2.133 6.4-2.133 8.533-4.267 4.267-8.533 6.4-14.934 2.133-8.533-6.4-17.066-10.666-34.133-10.666-29.867 0-53.333 27.733-53.333 64 0 36.267 23.467 64 53.333 64 17.066 0 25.6-6.4 34.133-12.8 4.267-2.133 10.667-2.133 12.8 2.133 2.133 2.133 2.133 4.267 2.133 8.533l-8.532 98.133c0 2.133 0 6.4 2.133 8.533 2.134 2.133 4.268 4.267 8.534 4.267h96c8.533 0 14.934-4.267 19.2-10.667 4.267-6.4 4.267-14.934 0-21.333-4.267-6.4-6.4-10.667-6.4-21.333 0-17.066 19.2-32 42.667-32s42.668 14.934 42.668 32c0 8.533-2.133 14.934-6.4 21.333-4.267 6.4-4.267 14.934 0 21.333s10.667 10.667 19.2 10.667h96c2.133 0 6.4-2.133 8.533-4.267 2.134-2.133 2.134-4.267 2.134-8.533L409.6 320c0-4.267 2.134-6.4 2.134-8.533 4.267-4.267 8.533-6.4 14.934-2.133C435.2 315.734 443.734 320 460.8 320c29.868 0 53.334-27.732 53.334-64 0-36.266-23.466-64-53.333-64z"/></svg>