<svg class="animate" viewBox="0 0 258.9 108.9">
	<path fill="#532D6D" d="M43.2,7.3v33c0,3,1.4,4.5,4.4,4.5h1v1.3H27.4v-1.3h1c3,0,4.4-1.5,4.4-4.5V24.7h-17v15.6
		c0,3,1.5,4.5,4.4,4.5h1.1v1.3H0v-1.3h1.1c3,0,4.4-1.5,4.4-4.5v-33c0-3-1.4-4.4-4.4-4.4H0V1.5h21.3v1.4h-1.1
		c-2.9,0-4.4,1.4-4.4,4.4v15.3h17V7.3c0-3-1.4-4.4-4.4-4.4h-1V1.5h21.2v1.4h-1C44.6,2.9,43.2,4.3,43.2,7.3"/>
	<path fill="#532D6D" d="M57.3,26.5h5.5c3.7,0,4.8-1.3,4.8-4.2c0-2.7-1.1-6.4-4.1-6.4C60.1,15.9,57.9,20.9,57.3,26.5 M74.7,36.7
		l1.1,0.5c-2.6,6.3-7.6,9.6-13.7,9.6c-9.3,0-13.8-7.4-13.8-15.2c0-8.3,5.3-17.1,15.3-17.1c5.6,0,12,2.7,12.5,13.7H57.2v1.3
		c0,9.3,4.6,13.3,9.3,13.3C70.1,42.8,72.9,40.3,74.7,36.7"/>
	<path fill="#532D6D" d="M94.5,46.1H77v-1.3h1c2.2,0,3.2-1,3.2-3.3V9.7c0-3.3-1-4.5-3.8-4.5h-0.8V4l13.5-4v41.4
		c0,2.3,1.1,3.3,3.2,3.3h1V46.1z"/>
	<path fill="#532D6D" d="M142.1,16.4c-3.1,0-3.8,1-4.9,4.1l-9.3,25.5h-1.5l-8-21.6l-9.3,21.6h-1.5l-9.3-25.5c-1.1-3.1-2-4.1-5-4.1
		v-1.3h16.9v1.3h-1.5c-1.7,0-2,1.3-1.5,2.9l4.9,15l5-12.9l-0.7-2c-0.8-2.2-1.4-2.9-3.5-2.9h-0.8v-1.3h16.8v1.3h-1.5
		c-1.7,0-2,1.3-1.5,2.9l4.5,13.9l4.4-13.9c0.4-1.6,0.2-2.9-1.5-2.9h-1.7v-1.3h10.4V16.4z"/>
	<path fill="#532D6D" d="M160.8,40v-12c-7,1.1-8.7,5.4-8.7,9.2c0,3.8,1.7,5.6,3.8,5.6C157.5,42.7,159.3,41.8,160.8,40 M167.2,46.8
		c-3.1,0-5.8-1.7-5.9-5.7c-2.4,3.3-5.7,5.7-10.2,5.7c-4.3,0-8.6-2.1-8.6-8.3c0-5.9,3.8-9.7,18.3-11.8v-2.4c0-6.4-2.2-8.3-5.6-8.9
		c-1.2,5.4-4.6,7.7-7.5,7.7c-2,0-3.6-1.1-3.6-3.1c0-3.9,6.4-5.5,12.2-5.5c8,0,12.9,3,12.9,9.3v16.7c0,2.3,0.8,3.2,2.1,3.2
		c0.8,0,1.7-0.4,2.5-1l0.6,0.9C172.3,45.6,169.7,46.8,167.2,46.8"/>
	<path fill="#532D6D" d="M188.5,46.8c-4.9,0-7.2-2.2-9.6-2.2c-0.5,0-1.6,0.1-2.5,0.3l-0.7-11.1l1.6-0.2c1.5,8.1,6.2,11.6,11.5,11.6
		c3.2,0,6.2-1.3,6.2-4.5c0-3.1-3.1-4.3-7.1-5.5c-5.5-1.5-12-3.2-12-10.9c0-7.7,6.6-9.9,11.4-9.9c4.3,0,6.1,1.7,8.5,1.7
		c0.5,0,1.4-0.1,2-0.3l0.5,8.5l-1.3,0.2c-1.9-6.6-6-8.7-9.8-8.7c-2.8,0-5.9,1.2-5.9,4.3c0,3.5,4.1,4.3,8.6,5.6
		c5.2,1.5,10.6,3.6,10.6,10.6C200.4,44.3,193.8,46.8,188.5,46.8"/>
	<path fill="#532D6D" d="M212,26.5h5.5c3.7,0,4.8-1.3,4.8-4.2c0-2.7-1.1-6.4-4.1-6.4C214.8,15.9,212.6,20.9,212,26.5 M229.4,36.7
		l1.1,0.5c-2.6,6.3-7.6,9.6-13.7,9.6c-9.3,0-13.8-7.4-13.8-15.2c0-8.3,5.3-17.1,15.3-17.1c5.6,0,12,2.7,12.5,13.7h-18.9v1.3
		c0,9.3,4.6,13.3,9.3,13.3C224.8,42.8,227.7,40.3,229.4,36.7"/>
	<path fill="#532D6D" d="M258.9,18.7c0,2.5-2.5,3.9-5.2,3.9c-1.7,0-3.5-0.6-5-1.6c-1.8,1.8-2.8,4.8-2.8,9.7v10.7
		c0,2.3,1.1,3.3,3.2,3.3h1.9v1.3h-18.3v-1.3h1c2.2,0,3.2-1,3.2-3.3V24.1c0-3.3-1-4.5-3.8-4.5h-0.8v-1.2l12.2-3.7c1,2.3,1,4.8,1,6.4
		v3.1c1.3-4.2,3.5-9.3,8.8-9.3C257.8,14.8,258.9,16.5,258.9,18.7"/>
	<path fill="#532D6D" d="M44.3,76.3h-1.2c-1.2,0-1.9,0.6-1.9,1.8v16.6h-0.6c-4.9,0-8,2.4-14.1,2.4c-11.9,0-20.9-8.9-20.9-22.9
		c0-12.2,6.9-23.9,21.6-23.9c5.5,0,7.9,1.7,10.5,1.7c0.5,0,1.7-0.1,3.6-0.6l1.5,12.2l-1.5,0.3c-1.8-7.8-7.9-11.6-14.8-11.6
		C15,52.2,9.7,62.4,9.7,73.8c0,15,9.5,20.9,18.6,20.9c3.6,0,6.4-1,9-1.9V79c0-1.8-0.9-2.7-2.8-2.7h-0.9c-3.1,0-5.1,0.4-6.7,0.6
		v-2.3h17.4V76.3z"/>
	<path fill="#532D6D" d="M66.9,89.3V78.5c-10.1,1.8-14.8,5.1-14.8,10.1c0,4,2.9,5.9,6.1,5.9C61.7,94.4,65.3,92.1,66.9,89.3
		 M71.5,96.7c-2.5,0-4.8-1.8-4.6-5.8c-2.2,3.6-6.6,5.8-10.2,5.8c-4.3,0-8-2.9-8-8c0-6,5.2-9.2,18.1-11.5v-1.3c0-7-2.9-8.8-7.8-9.3
		c-1.7,2.9-4.5,4.1-6.5,4.1c-1.3,0-2.5-0.5-2.5-1.7c0-2.4,5.5-3.6,9.7-3.6c7.3,0,10.1,3.6,10.1,10.1v16.2c0,2.2,1.3,3.1,2.6,3.1
		c1,0,2.1-0.4,2.9-1.4L76,94C75,95.8,73.3,96.7,71.5,96.7"/>
	<path fill="#532D6D" d="M91.6,96H78.9v-1.2h1.9c1.9,0,2.9-0.9,2.9-2.9V57.3c0-2.9-1.2-3.5-3.4-3.5h-1.4v-1.1l8-2v41.1
		c0,2,1,2.9,2.9,2.9h1.9V96z"/>
	<path fill="#532D6D" d="M107.9,96H95.1v-1.2H97c1.9,0,2.9-0.9,2.9-2.9V57.3c0-2.9-1.2-3.5-3.4-3.5h-1.4v-1.1l8-2v41.1
		c0,2,1,2.9,2.9,2.9h1.9V96z"/>
	<path fill="#532D6D" d="M114.1,76.7h11.6c3.1,0,4.6-1.1,4.6-3.9c0-3.5-2.6-5.9-6.4-5.9C118.7,67,115.3,71.5,114.1,76.7
		 M135.2,88.2c-2.2,5.2-6.5,8.5-12.2,8.5c-8.7,0-12.6-7.4-12.6-14.8c0-8.1,4.8-16.4,14.1-16.4c5,0,9.9,2.4,10.3,12.9h-21
		c-1,7.6,2.1,16.1,10.2,16.1c4.2,0,8.1-2.4,10.4-6.7L135.2,88.2z"/>
	<path fill="#532D6D" d="M158.8,68.1c0,1.3-1.1,2.4-3.3,2.4c-1.4,0-2.8-0.6-3.9-1.5c-2.7,1.5-5.2,4.3-5.2,9.1v13.7
		c0,2,1,2.9,2.9,2.9h2.5V96h-13.4v-1.2h1.9c1.9,0,2.9-0.9,2.9-2.9V72.1c0-2.9-1.2-3.5-3.4-3.5h-1.4v-1.1l7.1-1.8
		c0.5,1.7,0.6,3.2,0.6,4.3v3.7c1.7-3.9,4.5-7.8,9.1-7.8C157.3,65.9,158.8,66.7,158.8,68.1"/>
	<path fill="#532D6D" d="M190.8,66.2v1.1h-0.4c-2.6,0-3.1,0.8-4.1,3.4L176.9,96c-3.2,8.5-7.2,13-12.3,13c-2.7,0-3.8-1-3.8-2.1
		c0-1.1,1.1-2.2,3.3-2.2c1.3,0,3.3,0.6,4.8,1.3c2.4-1.9,3.9-3.8,6.6-10.6l-10.2-25.7c-0.8-1.9-1.7-2.3-3.5-2.3h-0.4v-1.1h12.1v1.1
		H171c-2.1,0-2.5,1.6-1.8,3.5l7.5,20.6c0-0.1,0.1-0.1,0.1-0.2l7.1-20.9c0.7-1.8-0.2-3-1.8-3h-2.7v-1.1H190.8z"/>
</svg>